<?xml version="1.0" encoding="UTF-8" standalone="no"?>
<!-- Created with Inkscape (http://www.inkscape.org/) -->

<svg
   xmlns:dc="http://purl.org/dc/elements/1.1/"
   xmlns:cc="http://creativecommons.org/ns#"
   xmlns:rdf="http://www.w3.org/1999/02/22-rdf-syntax-ns#"
   xmlns:svg="http://www.w3.org/2000/svg"
   xmlns="http://www.w3.org/2000/svg"
   xmlns:sodipodi="http://sodipodi.sourceforge.net/DTD/sodipodi-0.dtd"
   xmlns:inkscape="http://www.inkscape.org/namespaces/inkscape"
   width="210mm"
   height="297mm"
   viewBox="0 0 210 297"
   version="1.1"
   id="svg2358"
   inkscape:version="0.92.1 r15371"
   sodipodi:docname="logo_datalab.svg">
  <defs
     id="defs2352" />
  <sodipodi:namedview
     id="base"
     pagecolor="#ffffff"
     bordercolor="#666666"
     borderopacity="1.0"
     inkscape:pageopacity="0.0"
     inkscape:pageshadow="2"
     inkscape:zoom="0.35"
     inkscape:cx="-10"
     inkscape:cy="560"
     inkscape:document-units="mm"
     inkscape:current-layer="layer1"
     showgrid="false"
     inkscape:window-width="1920"
     inkscape:window-height="1016"
     inkscape:window-x="0"
     inkscape:window-y="27"
     inkscape:window-maximized="1" />
  <metadata
     id="metadata2355">
    <rdf:RDF>
      <cc:Work
         rdf:about="">
        <dc:format>image/svg+xml</dc:format>
        <dc:type
           rdf:resource="http://purl.org/dc/dcmitype/StillImage" />
        <dc:title></dc:title>
      </cc:Work>
    </rdf:RDF>
  </metadata>
  <g
     inkscape:label="Capa 1"
     inkscape:groupmode="layer"
     id="layer1">
    <g
       id="g1968"
       transform="matrix(3.2377821,0,0,-3.2377821,100.16369,217.39144)">
      <path
         d="m 0,0 c -13.711,0 -25.626,10.142 -27.712,23.591 l -0.108,0.693 h 3.782 l 0.086,-0.499 C -21.966,12.155 -11.892,3.715 0,3.715 c 11.894,0 21.967,8.44 23.952,20.07 l 0.086,0.499 H 27.82 L 27.712,23.591 C 25.626,10.142 13.711,0 0,0 m 27.906,30.504 h -3.76 l -0.07,0.521 C 22.485,42.952 12.135,51.944 0,51.944 c -12.135,0 -22.485,-8.992 -24.076,-20.919 l -0.07,-0.521 h -3.76 l 0.081,0.673 c 1.686,13.957 13.649,24.482 27.825,24.482 14.176,0 26.139,-10.525 27.825,-24.482 z"
         style="fill:#231f20;fill-opacity:1;fill-rule:nonzero;stroke:none"
         id="path1970"
         inkscape:connector-curvature="0" />
    </g>
    <path
       d="m 129.21816,124.03409 v 6.46258 c 0,17.43547 -10.31227,28.41479 -26.3846,28.41479 H 80.725957 V 95.616088 h 22.107603 c 16.07233,0 26.3846,10.982532 26.3846,28.418002 M 89.827377,103.82706 v 46.87664 h 13.006183 c 10.87246,0 17.27996,-6.73461 17.27996,-20.20703 v -6.46258 c 0,-13.00939 -5.94778,-20.20703 -17.27996,-20.20703 z"
       style="fill:#231f20;fill-opacity:1;fill-rule:nonzero;stroke:none;stroke-width:3.23778176"
       id="path1974"
       inkscape:connector-curvature="0" />
  </g>
</svg>
